<svg width="108" height="97" viewBox="0 0 108 97" fill="none" xmlns="http://www.w3.org/2000/svg">
<path d="M4 19C4 10.7157 10.7157 4 19 4H89C97.2843 4 104 10.7157 104 19V64C104 72.2843 97.2843 79 89 79H70.0355C69.3725 79 68.7366 79.2634 68.2678 79.7322L55.7678 92.2322C54.7915 93.2085 53.2085 93.2085 52.2322 92.2322L39.7322 79.7322C39.2634 79.2634 38.6275 79 37.9645 79H19C10.7157 79 4 72.2843 4 64V19Z" fill="url(#paint0_linear_797_1442)" stroke="url(#paint1_linear_797_1442)" stroke-width="7" stroke-linecap="round" stroke-linejoin="round"/>
<defs>
<linearGradient id="paint0_linear_797_1442" x1="54" y1="4" x2="54" y2="92.9645" gradientUnits="userSpaceOnUse">
<stop stop-color="#56B8F6"/>
<stop offset="1" stop-color="#4D6FED"/>
</linearGradient>
<linearGradient id="paint1_linear_797_1442" x1="54" y1="4" x2="54" y2="92.9645" gradientUnits="userSpaceOnUse">
<stop stop-color="#56B8F6"/>
<stop offset="1" stop-color="#4D6FED"/>
</linearGradient>
</defs>
</svg>
