<svg width="108" height="108" viewBox="0 0 108 108" fill="none" xmlns="http://www.w3.org/2000/svg">
<path d="M54 42.8889C64.7389 42.8889 73.4444 34.1833 73.4444 23.4444C73.4444 12.7056 64.7389 4 54 4C43.2611 4 34.5556 12.7056 34.5556 23.4444C34.5556 34.1833 43.2611 42.8889 54 42.8889Z" fill="url(#paint0_linear_797_1453)"/>
<path d="M4 100.667V104H104V100.667C104 88.2211 104 81.9983 101.578 77.2447C99.4475 73.0633 96.0478 69.6636 91.8664 67.5331C87.1128 65.1111 80.89 65.1111 68.4444 65.1111H39.5556C27.11 65.1111 20.8872 65.1111 16.1336 67.5331C11.9522 69.6636 8.55258 73.0633 6.42208 77.2447C4 81.9983 4 88.2211 4 100.667Z" fill="url(#paint1_linear_797_1453)"/>
<path d="M54 42.8889C64.7389 42.8889 73.4444 34.1833 73.4444 23.4444C73.4444 12.7056 64.7389 4 54 4C43.2611 4 34.5556 12.7056 34.5556 23.4444C34.5556 34.1833 43.2611 42.8889 54 42.8889Z" stroke="url(#paint2_linear_797_1453)" stroke-width="7" stroke-linecap="round" stroke-linejoin="round"/>
<path d="M4 100.667V104H104V100.667C104 88.2211 104 81.9983 101.578 77.2447C99.4475 73.0633 96.0478 69.6636 91.8664 67.5331C87.1128 65.1111 80.89 65.1111 68.4444 65.1111H39.5556C27.11 65.1111 20.8872 65.1111 16.1336 67.5331C11.9522 69.6636 8.55258 73.0633 6.42208 77.2447C4 81.9983 4 88.2211 4 100.667Z" stroke="url(#paint3_linear_797_1453)" stroke-width="7" stroke-linecap="round" stroke-linejoin="round"/>
<defs>
<linearGradient id="paint0_linear_797_1453" x1="54" y1="4" x2="54" y2="104" gradientUnits="userSpaceOnUse">
<stop stop-color="#56B8F6"/>
<stop offset="1" stop-color="#4D6FED"/>
</linearGradient>
<linearGradient id="paint1_linear_797_1453" x1="54" y1="4" x2="54" y2="104" gradientUnits="userSpaceOnUse">
<stop stop-color="#56B8F6"/>
<stop offset="1" stop-color="#4D6FED"/>
</linearGradient>
<linearGradient id="paint2_linear_797_1453" x1="54" y1="4" x2="54" y2="104" gradientUnits="userSpaceOnUse">
<stop stop-color="#56B8F6"/>
<stop offset="1" stop-color="#4D6FED"/>
</linearGradient>
<linearGradient id="paint3_linear_797_1453" x1="54" y1="4" x2="54" y2="104" gradientUnits="userSpaceOnUse">
<stop stop-color="#56B8F6"/>
<stop offset="1" stop-color="#4D6FED"/>
</linearGradient>
</defs>
</svg>
