<svg width="108" height="108" viewBox="0 0 108 108" fill="none" xmlns="http://www.w3.org/2000/svg">
<path d="M92.3333 94.0538V67.7459C92.3333 67.5896 92.4607 67.4629 92.6179 67.4629C98.9041 67.4629 104 62.3943 104 56.142V55.8896C104 52.8963 102.834 50.0195 100.747 47.8631L61.2431 7.04819C57.2947 2.96879 50.7237 2.98633 46.7974 7.08676L7.10646 48.5381C5.1123 50.6207 4 53.3865 4 56.2625C4 62.4483 9.04169 67.4629 15.2609 67.4629H15.3821C15.5393 67.4629 15.6667 67.5896 15.6667 67.7459V94.0538C15.6667 99.5469 20.1438 104 25.6667 104H43.1667C44.5474 104 45.6667 102.887 45.6667 101.513V79.6419C45.6667 76.8953 47.9052 74.6688 50.6667 74.6688H57.3333C60.0948 74.6688 62.3333 76.8953 62.3333 79.6419V101.513C62.3333 102.887 63.4526 104 64.8333 104H82.3333C87.8562 104 92.3333 99.5469 92.3333 94.0538Z" fill="url(#paint0_linear_797_1438)" stroke="url(#paint1_linear_797_1438)" stroke-width="7" stroke-linecap="round" stroke-linejoin="round"/>
<defs>
<linearGradient id="paint0_linear_797_1438" x1="54" y1="4" x2="54" y2="104" gradientUnits="userSpaceOnUse">
<stop stop-color="#56B8F6"/>
<stop offset="1" stop-color="#4D6FED"/>
</linearGradient>
<linearGradient id="paint1_linear_797_1438" x1="54" y1="4" x2="54" y2="104" gradientUnits="userSpaceOnUse">
<stop stop-color="#56B8F6"/>
<stop offset="1" stop-color="#4D6FED"/>
</linearGradient>
</defs>
</svg>
