<svg width="20" height="20" viewBox="0 0 20 20" fill="none" xmlns="http://www.w3.org/2000/svg">
<path d="M4.72681 9.9325L1.39601 15.7016C1.21225 16.0199 1.42314 16.421 1.7895 16.45L4.2186 16.6426C4.36878 16.6545 4.50558 16.7335 4.59099 16.8576L5.9723 18.865C6.18064 19.1677 6.63346 19.1498 6.81722 18.8315L10.148 13.0624" stroke="url(#paint0_linear_7_527)" stroke-width="1.5"/>
<path d="M15.2668 10.0472L18.5739 15.7753C18.7574 16.093 18.5474 16.4936 18.1817 16.5236L15.7535 16.7224C15.6043 16.7346 15.4684 16.8131 15.3832 16.9362L13.9969 18.9397C13.7881 19.2415 13.3362 19.223 13.1527 18.9052L9.84564 13.1772" stroke="url(#paint1_linear_7_527)" stroke-width="1.5"/>
<rect x="3.71875" y="0.749878" width="12.5" height="12.5" rx="6.25" stroke="url(#paint2_linear_7_527)" stroke-width="1.5"/>
<path d="M9.30292 4.07957C9.51246 3.43466 10.4248 3.43466 10.6344 4.07958L10.9271 4.98055C11.0209 5.26896 11.2896 5.46423 11.5929 5.46423H12.5402C13.2183 5.46423 13.5003 6.33197 12.9517 6.73055L12.1853 7.28738C11.9399 7.46563 11.8373 7.78159 11.931 8.07L12.2237 8.97097C12.4333 9.61589 11.6951 10.1522 11.1465 9.7536L10.3801 9.19676C10.1348 9.01851 9.80255 9.01851 9.55721 9.19677L8.79079 9.7536C8.2422 10.1522 7.50406 9.61589 7.71361 8.97097L8.00635 8.07C8.10006 7.78159 7.9974 7.46563 7.75206 7.28738L6.98565 6.73055C6.43705 6.33196 6.71899 5.46423 7.3971 5.46423H8.34443C8.64769 5.46423 8.91646 5.26896 9.01017 4.98055L9.30292 4.07957Z" fill="url(#paint3_linear_7_527)"/>
<defs>
<linearGradient id="paint0_linear_7_527" x1="7.43741" y1="11.4975" x2="3.71064" y2="17.9524" gradientUnits="userSpaceOnUse">
<stop stop-color="#56B6F6"/>
<stop offset="1" stop-color="#4D6FED"/>
</linearGradient>
<linearGradient id="paint1_linear_7_527" x1="12.5562" y1="11.6122" x2="16.2582" y2="18.0241" gradientUnits="userSpaceOnUse">
<stop stop-color="#56B6F6"/>
<stop offset="1" stop-color="#4D6FED"/>
</linearGradient>
<linearGradient id="paint2_linear_7_527" x1="9.96875" y1="-0.00012207" x2="9.96875" y2="13.9999" gradientUnits="userSpaceOnUse">
<stop stop-color="#56B6F6"/>
<stop offset="1" stop-color="#4D6FED"/>
</linearGradient>
<linearGradient id="paint3_linear_7_527" x1="9.96866" y1="2.03064" x2="9.96866" y2="11.9689" gradientUnits="userSpaceOnUse">
<stop stop-color="#56B8F6"/>
<stop offset="1" stop-color="#4D6FED"/>
</linearGradient>
</defs>
</svg>
