<svg width="16" height="20" viewBox="0 0 16 20" fill="none" xmlns="http://www.w3.org/2000/svg">
<path d="M11.5 1.99988H12C13.6569 1.99988 15 3.34302 15 4.99988V15.9999C15 17.6567 13.6569 18.9999 12 18.9999H4C2.34315 18.9999 1 17.6567 1 15.9999V4.99988C1 3.34302 2.34315 1.99988 4 1.99988H4.5" stroke="url(#paint0_linear_7_601)" stroke-width="1.5"/>
<path d="M4 15.9999H12" stroke="url(#paint1_linear_7_601)" stroke-width="1.5" stroke-linecap="round"/>
<rect x="4.75" y="0.749878" width="6.5" height="2.5" rx="1.25" stroke="url(#paint2_linear_7_601)" stroke-width="1.5"/>
<circle cx="8" cy="6.99988" r="1.25" stroke="url(#paint3_linear_7_601)" stroke-width="1.5"/>
<path d="M11 12.9999C11 11.343 9.65685 9.99988 8 9.99988C6.34315 9.99988 5 11.343 5 12.9999" stroke="url(#paint4_linear_7_601)" stroke-width="1.5" stroke-linecap="round"/>
<defs>
<linearGradient id="paint0_linear_7_601" x1="8" y1="1.99988" x2="8" y2="18.9999" gradientUnits="userSpaceOnUse">
<stop stop-color="#56B6F6"/>
<stop offset="1" stop-color="#4D6FED"/>
</linearGradient>
<linearGradient id="paint1_linear_7_601" x1="8" y1="15.9999" x2="8" y2="16.9999" gradientUnits="userSpaceOnUse">
<stop stop-color="#56B6F6"/>
<stop offset="1" stop-color="#4D6FED"/>
</linearGradient>
<linearGradient id="paint2_linear_7_601" x1="8" y1="-0.00012207" x2="8" y2="3.99988" gradientUnits="userSpaceOnUse">
<stop stop-color="#56B6F6"/>
<stop offset="1" stop-color="#4D6FED"/>
</linearGradient>
<linearGradient id="paint3_linear_7_601" x1="8" y1="4.99988" x2="8" y2="8.99988" gradientUnits="userSpaceOnUse">
<stop stop-color="#56B6F6"/>
<stop offset="1" stop-color="#4D6FED"/>
</linearGradient>
<linearGradient id="paint4_linear_7_601" x1="8" y1="9.99988" x2="8" y2="12.9999" gradientUnits="userSpaceOnUse">
<stop stop-color="#56B6F6"/>
<stop offset="1" stop-color="#4D6FED"/>
</linearGradient>
</defs>
</svg>
